<?xml version="1.0" encoding="UTF-8" standalone="no"?>
<svg
   height="108"
   viewBox="0 0 108 108"
   width="108"
   fill="#e3e3e3"
   version="1.1"
   id="svg2"
   sodipodi:docname="icon.svg"
   xml:space="preserve"
   inkscape:version="1.4.2 (ebf0e940d0, 2025-05-08)"
   xmlns:inkscape="http://www.inkscape.org/namespaces/inkscape"
   xmlns:sodipodi="http://sodipodi.sourceforge.net/DTD/sodipodi-0.dtd"
   xmlns="http://www.w3.org/2000/svg"
   xmlns:svg="http://www.w3.org/2000/svg"><defs
     id="defs2" /><sodipodi:namedview
     id="namedview2"
     pagecolor="#505050"
     bordercolor="#eeeeee"
     borderopacity="1"
     inkscape:showpageshadow="0"
     inkscape:pageopacity="0"
     inkscape:pagecheckerboard="0"
     inkscape:deskcolor="#505050"
     inkscape:zoom="8"
     inkscape:cx="30.0625"
     inkscape:cy="66.6875"
     inkscape:window-width="2560"
     inkscape:window-height="1359"
     inkscape:window-x="0"
     inkscape:window-y="0"
     inkscape:window-maximized="1"
     inkscape:current-layer="layer2" /><path
     id="rect9"
     style="display:inline;fill:#ffffff;stroke-width:0.1485"
     d="M 0,0 H 108 V 108 H 0 Z" /><g
     inkscape:groupmode="layer"
     id="layer2"
     inkscape:label="Layer 1"
     style="display:inline;fill:#ea8f8f;fill-opacity:1"
     transform="matrix(0.85041902,0,0,0.85041902,177.01433,-144.17451)"><path
       id="path3"
       style="display:inline;opacity:1;fill:#bf5252;stroke:#ffffff;stroke-width:0"
       d="m -149.86328,212.63477 a 1.0239273,1.0239273 0 0 0 -1.02344,1.02343 l 0.0215,24.03321 c -0.47645,-0.29159 -0.62988,-0.45869 -1.32618,-0.76954 -1.52967,-0.68288 -3.59649,-1.29296 -6.14453,-1.29296 -8.61085,0 -15.56054,6.95054 -15.56054,15.52343 0,8.5729 6.94984,15.52344 15.56054,15.52344 8.61029,0 15.48438,-6.95246 15.48438,-15.52344 V 213.6582 a 1.0239273,1.0239273 0 0 0 -1.02344,-1.02343 z m -8.47266,31.04492 c 4.10864,0 7.47266,3.36403 7.47266,7.47265 0,4.10864 -3.36402,7.47266 -7.47266,7.47266 -4.10864,0 -7.47265,-3.36402 -7.47265,-7.47266 0,-4.10863 3.36401,-7.47265 7.47265,-7.47265 z" /><path
       id="path1"
       style="display:inline;opacity:1;stroke:#ffffff;stroke-width:0"
       d="m -145.40234,199.38672 c -1.55222,0.006 -2.90507,0.71456 -3.8711,1.6582 -0.96602,0.94364 -1.6107,2.12352 -1.61523,3.375 a 1.0263014,1.0263014 0 0 0 0,0.004 v 12.40234 a 1.0263014,1.0263014 0 0 0 0.0293,0.24414 c 0.41409,1.68846 1.31525,2.44206 2.26171,3.38867 a 1.0263014,1.0263014 0 0 0 0,0.002 l 13.00977,13.00976 a 1.0263014,1.0263014 0 0 0 0.0254,0.0234 c 2.17268,2.02838 5.66151,1.82505 7.73047,-0.29687 l 11.02344,-11.04883 a 1.0263014,1.0263014 0 0 0 0.0273,-0.0273 c 2.13192,-2.30597 1.62973,-5.75042 -0.28516,-7.66601 l -0.002,-0.002 -13.30664,-13.32031 a 1.0263014,1.0263014 0 0 0 -0.0312,-0.0293 c -2.02029,-1.86304 -4.93488,-1.65229 -6.83789,-1.7168 a 1.0263014,1.0263014 0 0 0 -0.0352,0 h -8.11914 a 1.0263014,1.0263014 0 0 0 -0.004,0 z m 2.55273,8.04687 h 7.39649 l 10.9746,11.01953 -7.39062,7.38282 -10.98047,-11.01953 z" /><path
       id="path9"
       style="display:inline;opacity:1;fill:#ea8f8f;fill-opacity:1;stroke-width:0.19042"
       d="m -135.87978,211.56246 a 2.5966427,2.5966427 0 0 1 -2.59663,2.59665 2.5966427,2.5966427 0 0 1 -2.59666,-2.59665 2.5966427,2.5966427 0 0 1 2.59666,-2.59664 2.5966427,2.5966427 0 0 1 2.59663,2.59664 z" /></g></svg>
